<svg xmlns="http://www.w3.org/2000/svg" width="20" height="20" fill="none" viewBox="0 0 20 20"><path fill="url(#paint0_linear_2804_5967)" d="M10 20C15.5228 20 20 15.5228 20 10C20 4.47715 15.5228 0 10 0C4.47715 0 0 4.47715 0 10C0 15.5228 4.47715 20 10 20Z"/><path fill="#fff" d="M12.8701 12.2011L15.6993 10.5675C15.8491 10.4809 15.9418 10.32 15.9418 10.1469V6.87999C15.9418 6.70727 15.8487 6.54599 15.6993 6.45942L12.8701 4.82576C12.7202 4.7392 12.5344 4.73961 12.3846 4.82576L9.5554 6.45942C9.40554 6.54599 9.31286 6.70727 9.31286 6.87999V12.7185L7.32886 13.8638L5.34487 12.7185V10.4274L7.32886 9.28209L8.63751 10.0375V8.50058L7.5714 7.88525C7.4979 7.84279 7.41379 7.82033 7.32845 7.82033C7.24312 7.82033 7.159 7.84279 7.08592 7.88525L4.25671 9.51892C4.10686 9.60548 4.01418 9.76635 4.01418 9.93948V13.2064C4.01418 13.3791 4.10727 13.5404 4.25671 13.627L7.08592 15.2606C7.23536 15.3468 7.42155 15.3468 7.5714 15.2606L10.4006 13.6274C10.5505 13.5408 10.6431 13.3795 10.6431 13.2068V7.36833L10.6791 7.34791L12.6271 6.22301L14.6111 7.36833V9.65938L12.6271 10.8047L11.3205 10.0501V11.587L12.3846 12.2015C12.5344 12.2877 12.7202 12.2877 12.8701 12.2015V12.2011Z"/><defs><linearGradient id="paint0_linear_2804_5967" x1="-3.655" x2="16.992" y1="1.644" y2="14.279" gradientUnits="userSpaceOnUse"><stop stop-color="#A229C5"/><stop offset="1" stop-color="#7B3FE4"/></linearGradient></defs></svg>