<svg xmlns="http://www.w3.org/2000/svg" width="20" height="20" fill="none" viewBox="0 0 20 20"><circle cx="10" cy="10" r="10" fill="#000"/><path fill="url(#paint0_linear_2804_6019)" d="M6.19917 12.3691C6.26846 12.2998 6.36375 12.2594 6.46481 12.2594H15.6294C15.7969 12.2594 15.8806 12.4615 15.7622 12.5799L13.9518 14.3903C13.8825 14.4596 13.7872 14.5 13.6862 14.5H4.52159C4.35412 14.5 4.27039 14.2979 4.38877 14.1795L6.19917 12.3691Z"/><path fill="url(#paint1_linear_2804_6019)" d="M6.19917 5.60972C6.27135 5.54042 6.36663 5.5 6.46481 5.5H15.6294C15.7969 5.5 15.8806 5.70212 15.7622 5.8205L13.9518 7.63089C13.8825 7.70019 13.7872 7.74062 13.6862 7.74062H4.52159C4.35412 7.74062 4.27039 7.5385 4.38877 7.42012L6.19917 5.60972Z"/><path fill="url(#paint2_linear_2804_6019)" d="M13.9518 8.96776C13.8825 8.89846 13.7872 8.85804 13.6862 8.85804H4.52159C4.35412 8.85804 4.27039 9.06016 4.38877 9.17854L6.19917 10.9889C6.26846 11.0582 6.36375 11.0987 6.46481 11.0987H15.6294C15.7969 11.0987 15.8806 10.8965 15.7622 10.7782L13.9518 8.96776Z"/><defs><linearGradient id="paint0_linear_2804_6019" x1="-16.38" x2="-16.624" y1="3.8" y2="16.07" gradientUnits="userSpaceOnUse"><stop stop-color="#00FFA3"/><stop offset="1" stop-color="#DC1FFF"/></linearGradient><linearGradient id="paint1_linear_2804_6019" x1="-19.154" x2="-19.397" y1="2.352" y2="14.622" gradientUnits="userSpaceOnUse"><stop stop-color="#00FFA3"/><stop offset="1" stop-color="#DC1FFF"/></linearGradient><linearGradient id="paint2_linear_2804_6019" x1="-17.776" x2="-18.02" y1="3.071" y2="15.341" gradientUnits="userSpaceOnUse"><stop stop-color="#00FFA3"/><stop offset="1" stop-color="#DC1FFF"/></linearGradient></defs></svg>